<svg width="49" height="46" viewBox="0 0 49 46" fill="none" xmlns="http://www.w3.org/2000/svg">
<path d="M17.3528 33.0625L15.3111 36.8958C12.7106 35.8786 10.0176 34.8613 7.15467 33.1104C6.1563 32.4997 5.55094 31.4621 5.52695 30.3437C5.40241 24.6023 6.83719 18.8303 10.4701 12.7276C10.9455 11.9289 11.7377 11.3433 12.6565 11.0371C14.8482 10.3069 16.336 9.74242 18.884 9.34375L20.4153 11.9792C20.4153 11.9792 21.9465 11.5 24.4986 11.5C27.0507 11.5 28.582 11.9792 28.582 11.9792L30.1132 9.34375C32.6612 9.74242 34.1491 10.3069 36.3408 11.0371C37.2596 11.3433 38.0517 11.9289 38.5272 12.7276C42.1601 18.8303 43.5949 24.6023 43.4706 30.3437C43.4463 31.4621 42.841 32.4997 41.8426 33.1104C38.9797 34.8613 36.287 35.8786 33.6861 36.8958L31.6445 33.0625M14.2903 31.1458C14.2903 31.1458 19.3945 33.5417 24.4986 33.5417C29.6028 33.5417 34.707 31.1458 34.707 31.1458" stroke="#5785E0" stroke-width="3.75" stroke-linecap="round" stroke-linejoin="round"/>
<path d="M18.1185 27.7891C19.9508 27.7891 21.4362 26.1801 21.4362 24.1953C21.4362 22.2105 19.9508 20.6016 18.1185 20.6016C16.2862 20.6016 14.8008 22.2105 14.8008 24.1953C14.8008 26.1801 16.2862 27.7891 18.1185 27.7891Z" fill="#5785E0"/>
<path d="M30.8802 27.7891C32.7125 27.7891 34.1979 26.1801 34.1979 24.1953C34.1979 22.2105 32.7125 20.6016 30.8802 20.6016C29.0479 20.6016 27.5625 22.2105 27.5625 24.1953C27.5625 26.1801 29.0479 27.7891 30.8802 27.7891Z" fill="#B6CDFC"/>
</svg>
