<svg id="discord-icone" width="24" height="24"  viewBox="0 0 99 97" fill="none" xmlns="http://www.w3.org/2000/svg">
<g clip-path="url(#discord-icone)" >
<path d="M37.815 36.0508C35.3691 36.0508 33.0234 37.0223 31.2939 38.752C29.5644 40.4816 28.5928 42.8273 28.5928 45.273C28.5928 47.7187 29.5644 50.0644 31.2939 51.794C33.0234 53.5237 35.3691 54.4952 37.815 54.4952C40.2609 54.4952 42.6064 53.5237 44.336 51.794C46.0657 50.0644 47.0372 47.7187 47.0372 45.273C47.0372 42.8273 46.0657 40.4816 44.336 38.752C42.6064 37.0223 40.2609 36.0508 37.815 36.0508ZM65.4817 36.0508C63.0359 36.0508 60.6903 37.0223 58.9606 38.752C57.231 40.4816 56.2594 42.8273 56.2594 45.273C56.2594 47.7187 57.231 50.0644 58.9606 51.794C60.6903 53.5237 63.0359 54.4952 65.4817 54.4952C67.9274 54.4952 70.2731 53.5237 72.0027 51.794C73.7323 50.0644 74.7039 47.7187 74.7039 45.273C74.7039 42.8273 73.7323 40.4816 72.0027 38.752C70.2731 37.0223 67.9274 36.0508 65.4817 36.0508Z" fill="#6E57E0"/>
<path fill-rule="evenodd" clip-rule="evenodd" d="M61.4524 10.5311C62.3174 8.82016 64.1508 7.82278 66.057 8.02613C73.2905 8.79771 81.3069 10.4172 88.9535 15.7443C89.7457 16.2962 90.3447 17.0829 90.6661 17.9933C95.3772 31.3416 97.9687 43.0297 98.973 52.4705C99.9584 61.7314 99.477 69.3669 97.5159 74.2686C97.4679 74.3875 97.4153 74.5046 97.3582 74.619C95.6447 78.0437 93.0528 81.9617 89.8084 85.0945C86.6327 88.1614 82.272 91 77.0955 91C75.4614 91 74.1786 90.2668 73.5593 89.8721C72.8008 89.3888 72.0971 88.7885 71.4834 88.1973C70.2434 87.0031 68.9735 85.462 67.8424 83.8458C66.7053 82.2213 65.6143 80.3875 64.789 78.5629C64.611 78.1695 64.4344 77.7532 64.2684 77.3197C55.8042 78.6514 47.6651 78.6514 39.2009 77.3197C39.0346 77.7532 38.8581 78.1695 38.6801 78.5629C37.8547 80.3875 36.7637 82.2213 35.6267 83.8458C34.4954 85.462 33.2256 87.0031 31.9855 88.1973C31.372 88.7885 30.6682 89.3888 29.91 89.8721C29.2906 90.2668 28.0077 91 26.3734 91C21.1969 91 16.8365 88.1614 13.6605 85.0945C10.4163 81.9617 7.82455 78.0437 6.11087 74.619C6.05351 74.5046 6.00099 74.3875 5.9534 74.2686C3.99216 69.3669 3.51053 61.7314 4.49597 52.4705C5.50055 43.0297 8.09204 31.3416 12.8029 17.9933C13.1242 17.0829 13.7233 16.2962 14.5155 15.7443C22.1623 10.4172 30.1784 8.79771 37.4121 8.02613C39.3163 7.82301 41.1479 8.818 42.0139 10.526L45.0165 16.4477C49.4838 15.9398 53.9948 15.9397 58.4621 16.4472L61.4524 10.5311ZM29.9812 75.384C29.4659 76.4146 28.8025 77.5129 28.0716 78.5573C27.1854 79.8231 26.2938 80.8753 25.5886 81.5546C25.5384 81.603 25.4909 81.6477 25.4464 81.6887C23.8861 81.3969 22.0534 80.3787 20.0667 78.4601C17.7916 76.2633 15.8107 73.3482 14.4507 70.6756C13.3756 67.8287 12.7485 62.0726 13.6664 53.4462C14.5487 45.1554 16.8075 34.6767 20.9942 22.5121C25.5039 19.6778 30.2641 18.3411 35.2573 17.5933L38.2843 23.5636C39.1999 25.3694 41.1863 26.3667 43.1813 26.0223C48.846 25.0444 54.6367 25.0444 60.3014 26.0223C62.2985 26.3671 64.2868 25.3673 65.2012 23.5585L68.2159 17.594C73.2075 18.3419 77.9666 19.6786 82.4749 22.5121C86.6618 34.6767 88.9203 45.1554 89.8029 53.4462C90.7205 62.0726 90.0933 67.8287 89.0185 70.6756C87.6582 73.3482 85.6773 76.2633 83.4022 78.4601C81.4157 80.3787 79.5828 81.3969 78.0228 81.6887C77.9781 81.6477 77.9306 81.603 77.8804 81.5546C77.1753 80.8753 76.2835 79.8231 75.3977 78.5573C74.6664 77.5129 74.0033 76.4146 73.4878 75.384C74.3386 75.1626 75.1948 74.9289 76.0567 74.6826C78.5056 73.9831 79.9235 71.4309 79.2236 68.9819C78.5241 66.5334 75.9718 65.1155 73.5233 65.815C58.2121 70.1896 45.2568 70.1896 29.9457 65.815C27.4971 65.1155 24.9449 66.5334 24.2453 68.9819C23.5457 71.4309 24.9635 73.9831 27.4122 74.6826C28.2741 74.9289 29.1303 75.1626 29.9812 75.384ZM24.9533 82.0954C24.8932 82.1337 24.9018 82.1204 24.972 82.083L24.9533 82.0954ZM78.5158 82.0954L78.4969 82.083C78.5674 82.1204 78.5757 82.1337 78.5158 82.0954Z" fill="#6E57E0"  />
</g>
<defs>
<clipPath id="discord-icone" >
<rect   width="99" height="97" fill="white"/>
</clipPath>
</defs>
</svg>
