<svg width="69" height="20" viewBox="0 0 19 20" fill="none" xmlns="http://www.w3.org/2000/svg">
<g clip-path="url(#clip0_518_1020)">
<path d="M18.4361 12.9438C16.6595 17.8464 11.2184 20.3709 6.28319 18.5824C1.34795 16.794 -1.21264 11.3699 0.563949 6.46731C2.34054 1.56475 7.78156 -0.959751 12.7168 0.828686C17.6521 2.61712 20.2126 8.04125 18.4361 12.9438Z" fill="#85adfd"/>
<path d="M4.11042 7.84741L2.43188 9.42104L4.11042 10.9947" stroke="#1E1E1E" stroke-width="0.62945" stroke-linecap="round" stroke-linejoin="round"/>
<path d="M4.67838 10.9706C4.60386 10.9706 4.5535 10.9514 4.52731 10.9132C4.50113 10.8749 4.48804 10.8326 4.48804 10.7863V8.69849C4.48804 8.60181 4.54645 8.55347 4.66328 8.55347C4.78413 8.55347 4.84456 8.60181 4.84456 8.69849V10.6654H5.85369C5.92621 10.6654 5.96246 10.7147 5.96246 10.8134C5.96649 10.9182 5.93023 10.9706 5.85369 10.9706H4.67838Z" fill="white"/>
<path d="M7.86918 10.4841C7.86918 10.6473 7.81479 10.7691 7.70602 10.8497C7.65365 10.888 7.59927 10.9182 7.54287 10.9403C7.48849 10.9605 7.43511 10.9706 7.38274 10.9706H6.72408C6.67171 10.9706 6.61733 10.9605 6.56093 10.9403C6.50654 10.9182 6.45317 10.888 6.4008 10.8497C6.34842 10.8094 6.30814 10.7601 6.27994 10.7017C6.25174 10.6412 6.23764 10.5687 6.23764 10.4841V8.69849C6.23764 8.60181 6.29706 8.55347 6.4159 8.55347C6.53676 8.55347 6.59718 8.60181 6.59718 8.69849V10.4599C6.59718 10.5123 6.61229 10.5597 6.6425 10.602C6.67272 10.6442 6.72509 10.6654 6.79961 10.6654H7.3072C7.38173 10.6654 7.4341 10.6442 7.46431 10.602C7.49453 10.5597 7.50963 10.5123 7.50963 10.4599V8.69849C7.50963 8.60181 7.56905 8.55347 7.68789 8.55347C7.80875 8.55347 7.86918 8.60181 7.86918 8.69849V10.4841Z" fill="white"/>
<path d="M9.96112 10.4841C9.96112 10.6473 9.90673 10.7691 9.79796 10.8497C9.74559 10.888 9.69121 10.9182 9.63481 10.9403C9.58042 10.9605 9.52705 10.9706 9.47468 10.9706H8.81602C8.76365 10.9706 8.70926 10.9605 8.65287 10.9403C8.59848 10.9182 8.5451 10.888 8.49273 10.8497C8.44036 10.8094 8.40008 10.7601 8.37188 10.7017C8.34368 10.6412 8.32958 10.5687 8.32958 10.4841V9.04897C8.32958 8.9684 8.34368 8.8979 8.37188 8.83747C8.40008 8.77503 8.44036 8.72468 8.49273 8.68641H8.48971C8.54208 8.65216 8.59647 8.62397 8.65287 8.60181C8.70926 8.57965 8.76365 8.56857 8.81602 8.56857H9.47468C9.52705 8.56857 9.58143 8.57965 9.63783 8.60181C9.69423 8.62397 9.74861 8.65216 9.80098 8.68641H9.79796C9.85033 8.72468 9.89062 8.77503 9.91882 8.83747C9.94702 8.8979 9.96112 8.9684 9.96112 9.04897V9.25744C9.96112 9.35413 9.90069 9.40247 9.77983 9.40247C9.66099 9.40247 9.60157 9.35413 9.60157 9.25744V9.07616C9.60157 9.02581 9.58647 8.97948 9.55625 8.93718C9.52604 8.89488 9.47367 8.87373 9.39914 8.87373H8.89155C8.81703 8.87373 8.76466 8.89488 8.73444 8.93718C8.70423 8.97948 8.68912 9.02581 8.68912 9.07616V10.4599C8.68912 10.5123 8.70423 10.5597 8.73444 10.602C8.76466 10.6442 8.81703 10.6654 8.89155 10.6654H9.39914C9.47367 10.6654 9.52604 10.6442 9.55625 10.602C9.58647 10.5597 9.60157 10.5123 9.60157 10.4599V10.2847C9.60157 10.19 9.66099 10.1427 9.77983 10.1427C9.90069 10.1427 9.96112 10.19 9.96112 10.2847V10.4841Z" fill="white"/>
<path d="M11.1926 8.86467L10.5309 10.895V10.892C10.5188 10.9222 10.5017 10.9474 10.4796 10.9675C10.4594 10.9857 10.4342 10.9947 10.404 10.9947C10.3879 10.9947 10.3718 10.9927 10.3557 10.9887C10.3416 10.9867 10.3265 10.9836 10.3104 10.9796H10.3134C10.1986 10.9434 10.1563 10.8789 10.1865 10.7863L10.8754 8.69245C10.8854 8.66022 10.9026 8.63303 10.9267 8.61087C10.9529 8.58872 10.9831 8.57562 11.0174 8.57159C11.0516 8.56555 11.0848 8.56152 11.1171 8.55951C11.1493 8.55548 11.1745 8.55347 11.1926 8.55347C11.2107 8.55347 11.2359 8.55548 11.2681 8.55951C11.3004 8.56152 11.3336 8.56455 11.3678 8.56857C11.396 8.5726 11.4232 8.58771 11.4494 8.61389C11.4776 8.64008 11.4988 8.66626 11.5129 8.69245C11.6257 9.0389 11.7395 9.38837 11.8543 9.74086C11.9711 10.0913 12.0859 10.4398 12.1987 10.7863C12.2269 10.8789 12.1846 10.9434 12.0718 10.9796C12.0557 10.9836 12.0406 10.9867 12.0265 10.9887C12.0144 10.9927 12.0003 10.9947 11.9842 10.9947C11.956 10.9947 11.9298 10.9857 11.9056 10.9675C11.8835 10.9474 11.8674 10.9222 11.8573 10.892V10.895L11.1926 8.86467ZM11.4192 10.2424C11.4192 10.3069 11.396 10.3623 11.3497 10.4086C11.3054 10.4529 11.251 10.4751 11.1866 10.4751C11.1221 10.4751 11.0677 10.4529 11.0234 10.4086C10.9791 10.3623 10.9569 10.3069 10.9569 10.2424C10.9569 10.178 10.9791 10.1236 11.0234 10.0793C11.0677 10.0329 11.1221 10.0098 11.1866 10.0098C11.251 10.0098 11.3054 10.0329 11.3497 10.0793C11.396 10.1236 11.4192 10.178 11.4192 10.2424Z" fill="white"/>
<path d="M13.6144 9.58677C13.6667 9.58677 13.7211 9.59785 13.7775 9.62001C13.8339 9.64216 13.8883 9.67137 13.9407 9.70763H13.9377C13.99 9.74388 14.0303 9.79323 14.0585 9.85567C14.0867 9.91812 14.1008 9.98962 14.1008 10.0702V10.4841C14.1008 10.6473 14.0464 10.7691 13.9377 10.8497C13.8853 10.888 13.8309 10.9182 13.7745 10.9403C13.7201 10.9605 13.6667 10.9706 13.6144 10.9706H12.9557C12.9033 10.9706 12.849 10.9605 12.7926 10.9403C12.7382 10.9182 12.6848 10.888 12.6324 10.8497C12.5237 10.7691 12.4693 10.6473 12.4693 10.4841V10.2847C12.4693 10.19 12.5287 10.1427 12.6475 10.1427C12.7684 10.1427 12.8288 10.19 12.8288 10.2847V10.4599C12.8288 10.5123 12.8439 10.5597 12.8741 10.602C12.9043 10.6442 12.9567 10.6654 13.0312 10.6654H13.5388C13.6134 10.6654 13.6657 10.6442 13.6959 10.602C13.7262 10.5597 13.7413 10.5123 13.7413 10.4599V10.0944C13.7413 10.044 13.7262 9.99768 13.6959 9.95538C13.6657 9.91107 13.6134 9.88891 13.5388 9.88891H12.9557C12.851 9.88891 12.7432 9.85064 12.6324 9.7741C12.5237 9.6895 12.4693 9.56764 12.4693 9.40851V9.04897C12.4693 8.9684 12.4834 8.8979 12.5116 8.83747C12.5398 8.77503 12.5801 8.72468 12.6324 8.68641H12.6294C12.6818 8.65216 12.7362 8.62397 12.7926 8.60181C12.849 8.57965 12.9033 8.56857 12.9557 8.56857H13.6144C13.6667 8.56857 13.7211 8.57965 13.7775 8.60181C13.8339 8.62397 13.8883 8.65216 13.9407 8.68641H13.9377C13.99 8.72468 14.0303 8.77503 14.0585 8.83747C14.0867 8.8979 14.1008 8.9684 14.1008 9.04897V9.22723C14.1008 9.3219 14.0404 9.36923 13.9195 9.36923C13.8007 9.36923 13.7413 9.3219 13.7413 9.22723V9.07616C13.7413 9.02581 13.7262 8.97948 13.6959 8.93718C13.6657 8.89488 13.6134 8.87373 13.5388 8.87373H13.0312C12.9567 8.87373 12.9043 8.89488 12.8741 8.93718C12.8439 8.97948 12.8288 9.02581 12.8288 9.07616V9.38434C12.8288 9.43671 12.8439 9.48405 12.8741 9.52635C12.9043 9.56663 12.9567 9.58677 13.0312 9.58677H13.6144Z" fill="white"/>
<path d="M14.4785 7.84741L16.157 9.42104L14.4785 10.9947" stroke="#545454" stroke-width="0.62945" stroke-linecap="round" stroke-linejoin="round"/>
</g>
<defs>
<clipPath id="clip0_518_1020">
<rect width="19" height="18.9033" fill="white" transform="translate(0 0.253906)"/>
</clipPath>
</defs>
</svg>
