<svg width="40" height="41" viewBox="0 0 40 41" fill="none" xmlns="http://www.w3.org/2000/svg">
<g clip-path="url(#clip0_373_67)">
<path d="M16.4358 7.58089C16.4627 7.47056 16.457 7.36187 16.4191 7.26469C16.3813 7.1675 16.3125 7.0849 16.219 7.02438C16.1205 6.97691 16.0038 6.95405 15.8798 6.95794C15.7558 6.96183 15.6286 6.99234 15.5101 7.04662L10.7531 9.01431C10.4801 9.13416 10.2402 9.31342 10.0639 9.52926C9.88758 9.74509 9.78286 9.98774 9.76305 10.2263C9.76305 10.2263 5.01424 28.2718 4.83928 28.8653L15.2136 35.5486C15.4003 35.7028 15.6479 35.7989 15.927 35.8257C16.2062 35.8524 16.5052 35.8087 16.7887 35.6996L21.4525 33.7705C21.578 33.7278 21.6942 33.6595 21.789 33.5726C21.8837 33.4858 21.9535 33.3836 21.9912 33.2767C22.0217 33.1659 22.0177 33.0561 21.9796 32.9584C21.9416 32.8607 21.8708 32.7786 21.7744 32.7202L11.5039 26.1295L16.4358 7.58089Z" fill="url(#paint0_linear_373_67)"/>
<path d="M25.6614 7.53361C25.6915 7.441 25.6916 7.35092 25.6615 7.27153C25.6313 7.19214 25.572 7.12597 25.4889 7.07903C25.4004 7.0431 25.2941 7.02827 25.1797 7.03591C25.0653 7.04355 24.9467 7.07343 24.835 7.12273L20.3579 8.92664C20.1007 9.03592 19.871 9.19337 19.6981 9.37895C19.5252 9.56452 19.4169 9.76982 19.3871 9.9687C19.3871 9.9687 14.1333 25.1284 13.9432 25.6276L23.1713 30.8103C23.3357 30.9317 23.5591 31.0027 23.8149 31.015C24.0706 31.0273 24.3482 30.9804 24.6145 30.8797L29.0038 29.1111C29.1215 29.0712 29.2318 29.0103 29.3233 28.9348C29.4148 28.8593 29.4841 28.7719 29.524 28.6817C29.5575 28.5886 29.5592 28.4975 29.5289 28.4177C29.4986 28.3379 29.4374 28.2722 29.3515 28.2272L20.2144 23.1177L25.6614 7.53361Z" fill="url(#paint1_linear_373_67)"/>
<path d="M28.7132 19.0702C28.5509 18.9566 28.326 18.8906 28.0659 18.8802C27.8057 18.8698 27.5214 18.9154 27.2474 19.0115L22.7276 20.646C22.6074 20.6849 22.4937 20.7412 22.3963 20.8102C22.2989 20.8791 22.2206 20.9587 22.1683 21.042C22.1314 21.1286 22.1263 21.2132 22.1533 21.2876C22.1803 21.362 22.2386 21.4236 22.3225 21.4665L26.5836 23.59L23.6126 30.5446C23.5721 30.6317 23.565 30.7173 23.5922 30.7921C23.6194 30.8669 23.6797 30.9281 23.7668 30.9691C23.8496 31.0081 23.9542 31.0268 24.0698 31.0231C24.1854 31.0195 24.3078 30.9937 24.424 30.9484L28.9438 29.3138C29.2128 29.2107 29.4557 29.0625 29.6423 28.8875C29.8289 28.7126 29.9508 28.5187 29.9927 28.3302L33.0017 21.2689L28.7132 19.0702Z" fill="url(#paint2_linear_373_67)"/>
<path d="M28.3296 8.99986V8.90586L28.2677 8.83515L27.0394 7.43266C27.0394 7.43265 27.0394 7.43264 27.0394 7.43263C26.94 7.31906 26.94 7.14823 27.0394 7.03476L28.2677 5.63219L28.3296 5.56148V5.46748V2.55842C28.3296 1.78117 28.8392 1.25 29.4444 1.25H37.633C38.2382 1.25 38.7478 1.78117 38.7478 2.55842V11.9089C38.7478 12.6862 38.2382 13.2173 37.633 13.2173H29.4444C28.8392 13.2173 28.3296 12.6862 28.3296 11.9089V8.99986ZM28.6649 5.87416L28.6649 5.87416L27.6186 7.06897L27.4743 7.23367L27.6186 7.39837L28.6649 8.59318L28.6649 8.59324C28.7187 8.65459 28.7394 8.70085 28.7394 8.79209V11.9089C28.7394 12.1124 28.7991 12.3049 28.9264 12.4502C29.0564 12.5986 29.2402 12.6784 29.4443 12.6784H37.633C37.8371 12.6784 38.0209 12.5986 38.1509 12.4502C38.2782 12.3049 38.3379 12.1124 38.3379 11.9089V2.55842C38.3379 2.35493 38.2782 2.16247 38.1509 2.0171C38.0209 1.86874 37.8371 1.78897 37.633 1.78897H29.4443C29.2402 1.78897 29.0564 1.86874 28.9264 2.0171C28.7991 2.16247 28.7394 2.35493 28.7394 2.55842V5.67525C28.7394 5.76645 28.7187 5.81268 28.6649 5.87416Z" fill="#575757" stroke="#2F2F2F" stroke-width="0.5"/>
<path d="M30.8162 8.49233V9.32347C30.8162 10.2066 31.4076 10.8819 32.1809 10.8819C32.4539 10.8819 32.6359 10.6741 32.6359 10.3624C32.6359 10.0508 32.4539 9.84298 32.1809 9.84298C31.9535 9.84298 31.726 9.58323 31.726 9.32353V8.28457C31.726 8.12872 31.6806 8.02481 31.5896 7.92096L30.9981 7.2456L31.5895 6.57031C31.6805 6.46639 31.726 6.36254 31.726 6.2067V5.16773C31.726 4.90797 31.9535 4.64828 32.1809 4.64828C32.4538 4.64828 32.6358 4.44051 32.6358 4.12883C32.6358 3.81714 32.4538 3.60938 32.1809 3.60938C31.4075 3.60938 30.8161 4.28467 30.8161 5.16779V5.99893L30.0427 6.88205C29.9517 6.98597 29.9062 7.08982 29.9062 7.24566C29.9062 7.34958 29.9517 7.50542 30.0427 7.60927L30.8162 8.49233Z" fill="url(#paint3_linear_373_67)"/>
<path d="M35.3551 8.28469V9.32365C35.3551 9.58341 35.1276 9.84311 34.9002 9.84311C34.6273 9.84311 34.4453 10.0509 34.4453 10.3626C34.4453 10.6742 34.6273 10.882 34.9002 10.882C35.6736 10.882 36.265 10.2067 36.265 9.32359V8.49246L37.0384 7.60933C37.2203 7.40156 37.2203 7.08988 37.0384 6.88205L36.265 5.99893V5.16779C36.265 4.28467 35.6736 3.60938 34.9002 3.60938C34.6273 3.60938 34.4453 3.81714 34.4453 4.12883C34.4453 4.44051 34.6273 4.64828 34.9002 4.64828C35.1277 4.64828 35.3551 4.90804 35.3551 5.16773V6.2067C35.3551 6.36254 35.4006 6.46645 35.4916 6.57031L36.083 7.2456L35.4916 7.92089C35.4006 8.02493 35.3551 8.12885 35.3551 8.28469Z" fill="#B6CDFC"/>
</g>
<defs>
<linearGradient id="paint0_linear_373_67" x1="7.60979" y1="10.3137" x2="17.9179" y2="35.2347" gradientUnits="userSpaceOnUse">
<stop stop-color="#5785E0"/>
<stop offset="1" stop-color="#2F487A"/>
</linearGradient>
<linearGradient id="paint1_linear_373_67" x1="17.3998" y1="10.1179" x2="25.6051" y2="30.4823" gradientUnits="userSpaceOnUse">
<stop stop-color="#5785E0"/>
<stop offset="1" stop-color="#2F487A"/>
</linearGradient>
<linearGradient id="paint2_linear_373_67" x1="25.9215" y1="19.4902" x2="29.413" y2="29.1445" gradientUnits="userSpaceOnUse">
<stop stop-color="#5785E0"/>
<stop offset="1" stop-color="#2F487A"/>
</linearGradient>
<linearGradient id="paint3_linear_373_67" x1="31.2711" y1="3.60938" x2="31.2711" y2="10.8819" gradientUnits="userSpaceOnUse">
<stop stop-color="#5785E0"/>
<stop offset="1" stop-color="#2F487A"/>
</linearGradient>
<clipPath id="clip0_373_67">
<rect width="40" height="41" fill="white"/>
</clipPath>
</defs>
</svg>
