<svg width="71" height="151" viewBox="0 0 151 151" fill="none" xmlns="http://www.w3.org/2000/svg">
<g clip-path="url(#clip0_518_1020)">
<path d="M146.446 100.801C132.333 139.745 89.113 159.798 49.9102 145.592C10.7073 131.385 -9.63257 88.299 4.47969 49.3558C18.592 10.4126 61.8124 -9.64061 101.015 4.56573C140.218 18.7721 160.558 61.8583 146.446 100.801Z" fill="var(--primeira-cor)"/>
<path d="M36.3333 64L23 76.5L36.3333 89" stroke="#353434" stroke-width="5" stroke-linecap="round" stroke-linejoin="round"/>
<path  d="M40.8453 88.8079C40.2533 88.8079 39.8533 88.6559 39.6453 88.3519C39.4373 88.0479 39.3333 87.7119 39.3333 87.3439V70.7599C39.3333 69.9919 39.7973 69.6079 40.7253 69.6079C41.6853 69.6079 42.1653 69.9919 42.1653 70.7599V86.3839H50.1813C50.7573 86.3839 51.0453 86.7759 51.0453 87.5599C51.0773 88.3919 50.7893 88.8079 50.1813 88.8079H40.8453Z" fill="#3671e8"/>
<path d="M66.1911 84.9439C66.1911 86.2399 65.7591 87.2079 64.8951 87.8479C64.4791 88.1519 64.0471 88.3919 63.5991 88.5679C63.1671 88.7279 62.7431 88.8079 62.3271 88.8079H57.0951C56.6791 88.8079 56.2471 88.7279 55.7991 88.5679C55.3671 88.3919 54.9431 88.1519 54.5271 87.8479C54.1111 87.5279 53.7911 87.1359 53.5671 86.6719C53.3431 86.1919 53.2311 85.6159 53.2311 84.9439V70.7599C53.2311 69.9919 53.7031 69.6079 54.6471 69.6079C55.6071 69.6079 56.0871 69.9919 56.0871 70.7599V84.7519C56.0871 85.1679 56.2071 85.5439 56.4471 85.8799C56.6871 86.2159 57.1031 86.3839 57.6951 86.3839H61.7271C62.3191 86.3839 62.7351 86.2159 62.9751 85.8799C63.2151 85.5439 63.3351 85.1679 63.3351 84.7519V70.7599C63.3351 69.9919 63.8071 69.6079 64.7511 69.6079C65.7111 69.6079 66.1911 69.9919 66.1911 70.7599V84.9439Z" fill="#3671e8"/>
<path d="M82.8083 84.9439C82.8083 86.2399 82.3763 87.2079 81.5123 87.8479C81.0963 88.1519 80.6643 88.3919 80.2163 88.5679C79.7843 88.7279 79.3603 88.8079 78.9443 88.8079H73.7123C73.2963 88.8079 72.8643 88.7279 72.4163 88.5679C71.9843 88.3919 71.5603 88.1519 71.1443 87.8479C70.7283 87.5279 70.4083 87.1359 70.1843 86.6719C69.9603 86.1919 69.8483 85.6159 69.8483 84.9439V73.5439C69.8483 72.9039 69.9603 72.3439 70.1843 71.8639C70.4083 71.3679 70.7283 70.9679 71.1443 70.6639H71.1203C71.5363 70.3919 71.9683 70.1679 72.4163 69.9919C72.8643 69.8159 73.2963 69.7279 73.7123 69.7279H78.9443C79.3603 69.7279 79.7923 69.8159 80.2403 69.9919C80.6883 70.1679 81.1203 70.3919 81.5363 70.6639H81.5123C81.9283 70.9679 82.2483 71.3679 82.4723 71.8639C82.6963 72.3439 82.8083 72.9039 82.8083 73.5439V75.1999C82.8083 75.9679 82.3283 76.3519 81.3683 76.3519C80.4243 76.3519 79.9523 75.9679 79.9523 75.1999V73.7599C79.9523 73.3599 79.8323 72.9919 79.5923 72.6559C79.3523 72.3199 78.9363 72.1519 78.3443 72.1519H74.3123C73.7203 72.1519 73.3043 72.3199 73.0643 72.6559C72.8243 72.9919 72.7043 73.3599 72.7043 73.7599V84.7519C72.7043 85.1679 72.8243 85.5439 73.0643 85.8799C73.3043 86.2159 73.7203 86.3839 74.3123 86.3839H78.3443C78.9363 86.3839 79.3523 86.2159 79.5923 85.8799C79.8323 85.5439 79.9523 85.1679 79.9523 84.7519V83.3599C79.9523 82.6079 80.4243 82.2319 81.3683 82.2319C82.3283 82.2319 82.8083 82.6079 82.8083 83.3599V84.9439Z" fill="#3671e8"/>
<path d="M92.5906 72.0799L87.3346 88.2079V88.1839C87.2386 88.4239 87.1026 88.6239 86.9266 88.7839C86.7666 88.9279 86.5666 88.9999 86.3266 88.9999C86.1986 88.9999 86.0706 88.9839 85.9426 88.9519C85.8306 88.9359 85.7106 88.9119 85.5826 88.8799H85.6066C84.6946 88.5919 84.3586 88.0799 84.5986 87.3439L90.0706 70.7119C90.1506 70.4559 90.2866 70.2399 90.4786 70.0639C90.6866 69.8879 90.9266 69.7839 91.1986 69.7519C91.4706 69.7039 91.7346 69.6719 91.9906 69.6559C92.2466 69.6239 92.4466 69.6079 92.5906 69.6079C92.7346 69.6079 92.9346 69.6239 93.1906 69.6559C93.4466 69.6719 93.7106 69.6959 93.9826 69.7279C94.2066 69.7599 94.4226 69.8799 94.6306 70.0879C94.8546 70.2959 95.0226 70.5039 95.1346 70.7119C96.0306 73.4639 96.9346 76.2399 97.8466 79.0399C98.7746 81.8239 99.6866 84.5919 100.583 87.3439C100.807 88.0799 100.471 88.5919 99.5746 88.8799C99.4466 88.9119 99.3266 88.9359 99.2146 88.9519C99.1186 88.9839 99.0066 88.9999 98.8786 88.9999C98.6546 88.9999 98.4466 88.9279 98.2546 88.7839C98.0786 88.6239 97.9506 88.4239 97.8706 88.1839V88.2079L92.5906 72.0799ZM94.3906 83.0239C94.3906 83.5359 94.2066 83.9759 93.8386 84.3439C93.4866 84.6959 93.0546 84.8719 92.5426 84.8719C92.0306 84.8719 91.5986 84.6959 91.2466 84.3439C90.8946 83.9759 90.7186 83.5359 90.7186 83.0239C90.7186 82.5119 90.8946 82.0799 91.2466 81.7279C91.5986 81.3599 92.0306 81.1759 92.5426 81.1759C93.0546 81.1759 93.4866 81.3599 93.8386 81.7279C94.2066 82.0799 94.3906 82.5119 94.3906 83.0239Z" fill="#3671e8"/>
<path d="M111.828 77.8159C112.244 77.8159 112.676 77.9039 113.124 78.0799C113.572 78.2559 114.004 78.4879 114.42 78.7759H114.396C114.812 79.0639 115.132 79.4559 115.356 79.9519C115.58 80.4479 115.692 81.0159 115.692 81.6559V84.9439C115.692 86.2399 115.26 87.2079 114.396 87.8479C113.98 88.1519 113.548 88.3919 113.1 88.5679C112.668 88.7279 112.244 88.8079 111.828 88.8079H106.596C106.18 88.8079 105.748 88.7279 105.3 88.5679C104.868 88.3919 104.444 88.1519 104.028 87.8479C103.164 87.2079 102.732 86.2399 102.732 84.9439V83.3599C102.732 82.6079 103.204 82.2319 104.148 82.2319C105.108 82.2319 105.588 82.6079 105.588 83.3599V84.7519C105.588 85.1679 105.708 85.5439 105.948 85.8799C106.188 86.2159 106.604 86.3839 107.196 86.3839H111.228C111.82 86.3839 112.236 86.2159 112.476 85.8799C112.716 85.5439 112.836 85.1679 112.836 84.7519V81.8479C112.836 81.4479 112.716 81.0799 112.476 80.7439C112.236 80.3919 111.82 80.2159 111.228 80.2159H106.596C105.764 80.2159 104.908 79.9119 104.028 79.3039C103.164 78.6319 102.732 77.6639 102.732 76.3999V73.5439C102.732 72.9039 102.844 72.3439 103.068 71.8639C103.292 71.3679 103.612 70.9679 104.028 70.6639H104.004C104.42 70.3919 104.852 70.1679 105.3 69.9919C105.748 69.8159 106.18 69.7279 106.596 69.7279H111.828C112.244 69.7279 112.676 69.8159 113.124 69.9919C113.572 70.1679 114.004 70.3919 114.42 70.6639H114.396C114.812 70.9679 115.132 71.3679 115.356 71.8639C115.58 72.3439 115.692 72.9039 115.692 73.5439V74.9599C115.692 75.7119 115.212 76.0879 114.252 76.0879C113.308 76.0879 112.836 75.7119 112.836 74.9599V73.7599C112.836 73.3599 112.716 72.9919 112.476 72.6559C112.236 72.3199 111.82 72.1519 111.228 72.1519H107.196C106.604 72.1519 106.188 72.3199 105.948 72.6559C105.708 72.9919 105.588 73.3599 105.588 73.7599V76.2079C105.588 76.6239 105.708 76.9999 105.948 77.3359C106.188 77.6559 106.604 77.8159 107.196 77.8159H111.828Z" fill="#3671e8"/>
<path d="M118.692 64L132.025 76.5L118.692 89" stroke="#797979" stroke-width="5" stroke-linecap="round" stroke-linejoin="round"/>
</g>
<defs>
<clipPath id="logo">
<rect width="150.925" height="150.157" fill="white"/>
</clipPath>
</defs>
</svg>
